<?xml version="1.0" encoding="UTF-8" standalone="no"?>
<!-- Created with Inkscape (http://www.inkscape.org/) -->

<svg
   width="121.5299mm"
   height="149.61469mm"
   viewBox="0 0 121.5299 149.61469"
   version="1.1"
   id="svg5"
   sodipodi:docname="ck-logo-mask.svg"
   xmlns:inkscape="http://www.inkscape.org/namespaces/inkscape"
   xmlns:sodipodi="http://sodipodi.sourceforge.net/DTD/sodipodi-0.dtd"
   xmlns="http://www.w3.org/2000/svg"
   xmlns:svg="http://www.w3.org/2000/svg">
  <sodipodi:namedview
     id="namedview7"
     pagecolor="#ffffff"
     bordercolor="#000000"
     borderopacity="0.25"
     inkscape:showpageshadow="2"
     inkscape:pageopacity="0.0"
     inkscape:pagecheckerboard="0"
     inkscape:deskcolor="#d1d1d1"
     inkscape:document-units="mm"
     showgrid="false"
     showguides="true"
     inkscape:zoom="2.2123078"
     inkscape:cx="339.69053"
     inkscape:cy="504.67662"
     inkscape:window-width="1878"
     inkscape:window-height="1051"
     inkscape:window-x="0"
     inkscape:window-y="0"
     inkscape:window-maximized="1"
     inkscape:current-layer="g2930">
    <sodipodi:guide
       position="-106.1136,124.73869"
       orientation="0,-1"
       id="guide559"
       inkscape:locked="false" />
    <sodipodi:guide
       position="7.5026817,24.756355"
       orientation="0,-1"
       id="guide561"
       inkscape:locked="false" />
    <sodipodi:guide
       position="228.75543,170.42439"
       orientation="1,0"
       id="guide563"
       inkscape:locked="false" />
    <sodipodi:guide
       position="-120.22593,74.747516"
       orientation="0,-1"
       id="guide676"
       inkscape:locked="false" />
    <sodipodi:guide
       position="-27.897759,149.61468"
       orientation="0,-1"
       id="guide707"
       inkscape:locked="false" />
    <sodipodi:guide
       position="22.202939,-2.7085563e-05"
       orientation="0,-1"
       id="guide709"
       inkscape:locked="false" />
    <sodipodi:guide
       position="-107.54875,149.61468"
       orientation="1,0"
       id="guide711"
       inkscape:locked="false" />
    <sodipodi:guide
       position="-117.35563,157.50801"
       orientation="1,0"
       id="guide797"
       inkscape:locked="false" />
    <sodipodi:guide
       position="219.66613,158.94317"
       orientation="1,0"
       id="guide860"
       inkscape:locked="false" />
    <sodipodi:guide
       position="-41.053327,199.60583"
       orientation="0,755.90551"
       id="guide862"
       inkscape:locked="false" />
    <sodipodi:guide
       position="158.94668,199.60583"
       orientation="1122.5197,0"
       id="guide864"
       inkscape:locked="false" />
    <sodipodi:guide
       position="158.94668,-97.394176"
       orientation="0,-755.90551"
       id="guide866"
       inkscape:locked="false" />
    <sodipodi:guide
       position="-41.053327,-97.394176"
       orientation="-1122.5197,0"
       id="guide868"
       inkscape:locked="false" />
    <sodipodi:guide
       position="121.52991,149.61469"
       orientation="0,-1"
       id="guide3008"
       inkscape:locked="false" />
    <sodipodi:guide
       position="30.138212,130.71851"
       orientation="1,0"
       id="guide3187"
       inkscape:locked="false" />
    <sodipodi:guide
       position="-72.148308,244.33477"
       orientation="0,-1"
       id="guide3500"
       inkscape:locked="false" />
    <sodipodi:guide
       position="-18.220183,87.185516"
       orientation="0,-1"
       id="guide3587"
       inkscape:locked="false" />
    <sodipodi:guide
       position="-15.676534,62.309525"
       orientation="0,-1"
       id="guide3589"
       inkscape:locked="false" />
    <sodipodi:guide
       position="-11.412522,112.18109"
       orientation="0,-1"
       id="guide3759"
       inkscape:locked="false" />
    <sodipodi:guide
       position="7.5026807,12.198765"
       orientation="0,-1"
       id="guide3804"
       inkscape:locked="false" />
    <sodipodi:guide
       position="12.477711,137.29627"
       orientation="0,-1"
       id="guide3806"
       inkscape:locked="false" />
    <sodipodi:guide
       position="21.316029,30.975355"
       orientation="0,-1"
       id="guide4051"
       inkscape:locked="false" />
    <sodipodi:guide
       position="49.002521,118.40009"
       orientation="0,-1"
       id="guide4080"
       inkscape:locked="false" />
    <sodipodi:guide
       position="57.213758,-57.140189"
       orientation="0,-1"
       id="guide7181"
       inkscape:locked="false" />
    <sodipodi:guide
       position="-1.3897045e-06,105.82081"
       orientation="1,0"
       id="guide7189"
       inkscape:locked="false" />
    <sodipodi:guide
       position="49.718687,56.090534"
       orientation="1,0"
       id="guide664"
       inkscape:locked="false" />
    <sodipodi:guide
       position="46.693127,36.775787"
       orientation="1,0"
       id="guide821"
       inkscape:locked="false" />
  </sodipodi:namedview>
  <defs
     id="defs2">
    <inkscape:perspective
       sodipodi:type="inkscape:persp3d"
       inkscape:vp_x="0 : 74.807345 : 1"
       inkscape:vp_y="0 : 1000 : 0"
       inkscape:vp_z="121.5299 : 74.807345 : 1"
       inkscape:persp3d-origin="60.76495 : 49.871563 : 1" />
    <inkscape:path-effect
       effect="powerclip"
       id="path-effect650"
       is_visible="true"
       lpeversion="1"
       inverse="true"
       flatten="false"
       hide_clip="false"
       message="Use fill-rule evenodd on &lt;b&gt;fill and stroke&lt;/b&gt; dialog if no flatten result after convert clip to paths." />
    <inkscape:path-effect
       effect="powerclip"
       id="path-effect15687"
       is_visible="true"
       lpeversion="1"
       inverse="true"
       flatten="false"
       hide_clip="false"
       message="Use fill-rule evenodd on &lt;b&gt;fill and stroke&lt;/b&gt; dialog if no flatten result after convert clip to paths." />
    <clipPath
       clipPathUnits="userSpaceOnUse"
       id="clipPath15679">
      <path
         style="display:block;fill:#002b22;fill-opacity:1;stroke-width:0.264583"
         d="M 91.333008,106.18907 V 87.364935 c 0,-6.159193 0,-6.159193 -10.317631,-6.159193 -10.81962,0 -10.81962,0 -10.81962,6.159193 v 12.617387 24.816168 25.17499 12.35326 c 0,6.30373 0,6.42333 10.81962,6.42333 10.317631,0 10.317631,-0.1196 10.317631,-6.42333 v -18.7477 c 0,0 20.513402,12.59543 36.671982,21.86574 5.43564,3.18569 5.43564,-3.03332 5.43564,-3.03332 v -12.43798 c 0,-6.45819 0,-6.45819 -5.43564,-6.45819 -36.671982,0.0637 -36.671982,-37.32622 0,-37.32622 5.43564,0 5.43564,0 5.43564,-6.206748 v -12.55758 c 0,0 -1e-5,-6.219 -5.6405,-3.099756 -16.09739,9.460037 -36.467122,21.864084 -36.467122,21.864084 z"
         id="path15681"
         sodipodi:nodetypes="cccccccccccccccccccc"
         mask="none" />
    </clipPath>
    <clipPath
       clipPathUnits="userSpaceOnUse"
       id="clipath_lpe_path-effect650">
      <path
         style="display:none;fill:#002b22;fill-opacity:1;stroke-width:0.264583"
         d="M 91.333008,106.18907 V 87.364935 c 0,-6.159193 0,-6.159193 -10.317631,-6.159193 -10.81962,0 -10.81962,0 -10.81962,6.159193 v 12.617387 24.816168 25.17499 12.35326 c 0,6.30373 0,6.42333 10.81962,6.42333 10.317631,0 10.317631,-0.1196 10.317631,-6.42333 v -18.7477 c 0,0 20.513402,12.59543 36.671982,21.86574 5.43564,3.18569 5.43564,-3.03332 5.43564,-3.03332 v -12.43798 c 0,-6.45819 0,-6.45819 -5.43564,-6.45819 -36.671982,0.0637 -36.671982,-37.32622 0,-37.32622 5.43564,0 5.43564,0 5.43564,-6.206748 v -12.55758 c 0,0 -1e-5,-6.219 -5.6405,-3.099756 -16.09739,9.460037 -36.467122,21.864084 -36.467122,21.864084 z"
         id="path652"
         sodipodi:nodetypes="cccccccccccccccccccc"
         mask="none" />
      <path
         id="lpe_path-effect650"
         style="display:inline;fill:#002b22;fill-opacity:1;stroke-width:0.264583"
         class="powerclip"
         d="M 36.053326,44.991142 H 167.58323 V 204.60584 H 36.053326 Z M 91.333008,106.18907 V 87.364935 c 0,-6.159193 0,-6.159193 -10.317631,-6.159193 -10.81962,0 -10.81962,0 -10.81962,6.159193 v 12.617387 24.816168 25.17499 12.35326 c 0,6.30373 0,6.42333 10.81962,6.42333 10.317631,0 10.317631,-0.1196 10.317631,-6.42333 v -18.7477 c 0,0 20.513402,12.59543 36.671982,21.86574 5.43564,3.18569 5.43564,-3.03332 5.43564,-3.03332 v -12.43798 c 0,-6.45819 0,-6.45819 -5.43564,-6.45819 -36.671982,0.0637 -36.671982,-37.32622 0,-37.32622 5.43564,0 5.43564,0 5.43564,-6.206748 v -12.55758 c 0,0 -1e-5,-6.219 -5.6405,-3.099756 -16.09739,9.460037 -36.467122,21.864084 -36.467122,21.864084 z" />
    </clipPath>
  </defs>
  <g
     inkscape:label="Layer 1"
     inkscape:groupmode="layer"
     id="layer1"
     transform="translate(-41.053326,-49.991141)">
    <rect
       style="display:none;fill:#0000ff;fill-rule:evenodd;stroke-width:0.264583"
       id="rect657"
       width="96.239601"
       height="96.012726"
       x="59.625954"
       y="76.444794"
       ry="8.3751702e-06" />
    <path
       style="display:none;fill:#ffff00;fill-opacity:1;fill-rule:evenodd;stroke-width:0.262519"
       id="rect6060"
       width="121.52991"
       height="149.6147"
       x="41.053326"
       y="49.991142"
       ry="8.3751702e-06"
       mask="none"
       clip-path="url(#clipPath15679)"
       inkscape:path-effect="#path-effect15687"
       d="M 41.053334,49.991142 H 162.58322 c 10e-6,0 10e-6,4e-6 10e-6,9e-6 V 199.60583 c 0,1e-5 0,1e-5 -10e-6,1e-5 H 41.053334 c -5e-6,0 -8e-6,0 -8e-6,-1e-5 V 49.991151 c 0,-5e-6 3e-6,-9e-6 8e-6,-9e-6 z"
       sodipodi:type="rect" />
    <path
       id="path382"
       style="display:none;fill:#ff00ff;stroke-width:0.471104"
       d="m 169.75899,124.79849 a 36.318361,32.948734 0 0 1 -36.31836,32.94874 36.318361,32.948734 0 0 1 -36.31836,-32.94874 36.318361,32.948734 0 0 1 36.31836,-32.948732 36.318361,32.948734 0 0 1 36.31836,32.948732 z" />
    <path
       style="display:none;fill:#ff6600;fill-opacity:1;fill-rule:evenodd;stroke-width:0.262519"
       id="path646"
       width="121.52991"
       height="149.6147"
       x="41.053326"
       y="49.991142"
       ry="8.3751702e-06"
       mask="none"
       clip-path="url(#clipath_lpe_path-effect650)"
       inkscape:path-effect="#path-effect650"
       d="M 41.053334,49.991142 H 162.58322 c 10e-6,0 10e-6,4e-6 10e-6,9e-6 V 199.60583 c 0,1e-5 0,1e-5 -10e-6,1e-5 H 41.053334 c -5e-6,0 -8e-6,0 -8e-6,-1e-5 V 49.991151 c 0,-5e-6 3e-6,-9e-6 8e-6,-9e-6 z"
       sodipodi:type="rect" />
  </g>
  <g
     inkscape:groupmode="layer"
     id="layer2"
     inkscape:label="Layer 2">
    <path
       style="display:inline;fill:#00ffff;stroke-width:0.264583"
       d="m 49.718686,62.429171 c 0,-0.777375 42.668617,-31.21457 42.668617,-31.21457 v 5.860208 l 3e-6,8.317575 -3e-6,17.156363 c 0,0 -28.920096,12.234081 -28.927071,12.318412 -0.0084,0.101889 28.927071,12.437996 28.927071,12.437996 V 118.75893 L 84.606697,113.02335 49.718686,87.305161 V 118.63933 H 30.138211 V 31.214597 h 19.580475 z"
       id="path770"
       sodipodi:nodetypes="ccccccccccccccc" />
    <ellipse
       style="fill:#c83737;stroke-width:0.132092"
       id="path875"
       cx="92.387306"
       cy="74.986763"
       rx="28.927311"
       ry="29.594379" />
  </g>
</svg>
