<svg width="25" height="24" viewBox="0 0 25 24" fill="none" xmlns="http://www.w3.org/2000/svg">
<path d="M10.3442 5.51C10.1639 6.15 10.0737 6.82 10.0737 7.5C10.0737 11.58 13.3996 14.9 17.4869 14.9C18.1681 14.9 18.8393 14.81 19.4804 14.63C18.4386 17.19 15.9141 19 12.9789 19C9.11202 19 5.96644 15.86 5.96644 12C5.96644 9.07 7.77966 6.55 10.3442 5.51ZM12.9789 3C8.00005 3 3.96289 7.03 3.96289 12C3.96289 16.97 8.00005 21 12.9789 21C17.9577 21 21.9949 16.97 21.9949 12C21.9949 11.54 21.9548 11.08 21.8947 10.64C20.9129 12.01 19.3101 12.9 17.4869 12.9C14.5016 12.9 12.0773 10.48 12.0773 7.5C12.0773 5.69 12.9689 4.08 14.3413 3.1C13.9005 3.04 13.4397 3 12.9789 3Z" fill="black"/>
</svg>
