<?xml version="1.0" encoding="UTF-8"?>
<!-- Generator: Adobe Illustrator 19.0.0, SVG Export Plug-In . SVG Version: 6.00 Build 0)  -->
<svg version="1.1" id="Laag_1" xmlns="http://www.w3.org/2000/svg" xmlns:xlink="http://www.w3.org/1999/xlink" x="0px" y="0px" viewBox="0 0 348.0690002 148.0639954" enable-background="new 0 0 348.0690002 148.0639954" xml:space="preserve">
<g>
	<defs>
		<rect id="SVGID_1_" width="348.0690002" height="148.0639954"/>
	</defs>
	<clipPath id="SVGID_2_">
		<use xlink:href="#SVGID_1_" overflow="visible"/>
	</clipPath>
	<path clip-path="url(#SVGID_2_)" fill="#2A2B84" d="M32.0107002,61.4004974   c-0.2300014-0.0099945-4.448-0.2739944-4.9060001-2.8169937c-0.1780014-0.8500061-0.8610001-1.2470016-14.5440006-1.8850021   c-2.1279984-0.1529999-6.132-0.7779999-6.1339989-2.0540009C6.4257011,53.8785019,7.5737,53.7915039,8.0057011,53.7584991   c0.0479984-0.0029984,0.0949993,0.0009995,0.1419983,0.012001c0.0610008,0.0139999,6.2800007,1.473999,14.8789997,0.8250046   c4.7189999-0.1620026,6.1340008-0.2140045,6.9920006,1.3729935c0.6439991,1.1920013,1.0369987,1.9680023,3.4160004,1.9250031   c2.4959984-0.0589981,11.579998-0.5329971,11.6709976-0.5390015c0.007,0,1.6030006-0.1309967,2.3530006-1.2289963   l0.2709999-0.4049988c0.7730026-1.1660004,1.8040009-2.7260056,3.9820023-3.6110077   c-2.064003-2.4889984-10.1420021-13.5019989-3.0279999-25.8389969c3.9909973-6.9209976,11.8799973-7.7819901,17.612999-5.052002   c9.7029953,4.6200027,10.7529984,15.8370056,7.4869995,25.2580032c1.0719986-0.4990005,2.6019974-1.4640045,4.0189972-3.0340042   c2.2570038-2.5089951,7.6980057-5.6019974,15.598999-6.060997c9.8190002-0.5690002,23.3560028-3.7460022,31.8980026-10.9520035   c9.25-7.8050003,22.9949951-12.583992,28.2009888-13.6759872c5.1210022-1.0730133,8.4790039-4.1679993,10.0920105-5.6549988   c1.9960022-1.8380127,6.9290009-6.4370117,6.9290009-6.4370117c0.3410034-0.4589996,1-0.9149933,1.548996-0.4960022   c0.1000061,0.0770111,0.1849976,0.2320099,0.197998,0.3570099c0.0570068,0.5179901-0.647995,1.4550018-5.0329895,6.6869965   c-1.1549988,1.378006-2.3950043,2.8580017-3.5820007,4.3090057c-0.1820068,0.1989899-0.3420105,0.3789978-0.5050049,0.5639954   c-1.5130005,1.7120056-3.3950043,3.8430023-11.5599976,5.7259979c-8.5720062,1.9759979-16.0870056,7.1869965-18.9160004,9.1489944   L132.3406982,27.1875c-11.2360001,7.7870026-24.6269989,12.439003-37.7089996,13.0970001   c-5.2320023,0.3000031-10.9189987,3.0940018-14.4850006,7.1149979c-3.4049988,3.8440018-7.3460007,6.1119995-13.1780014,7.5850067   c-0.25,0.0339966-0.5329971-0.0330048-0.6969986-0.2940063c-0.25-0.3989944-0.0859985-0.9939957,0.5469971-1.9860001   c0.0620041-0.098999,6.2440033-9.9039993,4.288002-18.6650009c-0.8199997-3.6719971-2.9820023-6.6339951-6.423996-8.8050003   c-3.1710014-1.7569962-6.7460022-1.6650009-9.7910004,0.2649994c-3.5920029,2.276001-5.637001,6.5280075-5.3380013,11.0970001   c0.5890007,8.9640045,5.1009979,15.1170044,5.1469994,15.177002c0.0320015,0.0320053,0.5559998,0.6350021,0.4220009,1.3950043   c-0.0900002,0.5149994-0.4480019,0.9399948-1.0629997,1.2659988c-1.4560013,0.7699966-1.8199997,1.0660019-2.3699989,2.4580002   c-0.6880035,1.7409973-1.5790024,2.7819977-4.3190041,3.3010025   C44.6896973,60.7024994,32.5276985,61.3724976,32.0107002,61.4004974"/>
	<path clip-path="url(#SVGID_2_)" fill="#2A2B84" d="M64.5177994,116.9475937c-0.3210068,0-1.0800018-0.1179962-1.5880013-1.1409988   c-0.1000023-0.1989975-0.2040024-0.3909988-0.3069992-0.5820007c-0.7220001-1.3329926-1.4680023-2.7109985-0.5279999-5.7569962   c0.1049995-0.3380051,0.2129974-0.6689987,0.3219986-0.9970016c0.9329987-2.8190002,1.7389946-5.2539978-1.6339989-9.7559967   c-0.9150009-1.2200012-1.9020004-2.3150024-2.8560028-3.3740082c-3.1689987-3.5119934-6.1619987-6.8289948-6.1609993-14.0379944   c0.0020027-6.2939987-0.5769997-7.9710007-1.0629997-8.2699966c-0.1609993-0.098999-0.4099998-0.0459976-0.8649979,0.1849976   c-1.362999,0.6900024-3.8549995,2.973999-3.8800011,2.9980011l0.0009995-0.0009995   c0.0110016,0-0.737999,0.9919968-2.086998,1.0719986c-1.2100029,0.0660019-2.4659996-0.5979996-3.7450027-1.987999   c-0.6449966-0.7009964-1.1659966-1.3239975-1.6309967-1.8789978c-1.8660011-2.2310028-2.7170029-3.25-7.1599998-3.9410019   c-1.7290001-0.2679977-2.887001-0.2200012-3.9090004-0.177002c-2.3720016,0.102005-3.9490013,0.1650009-9.4020004-3.6059952   C10.8708,60.7435989,9.1527977,60.6026001,7.771801,60.4886017l-0.2680016-0.0230026   c-0.2700005-0.0250015-0.625-0.0329971-1.0320015-0.0419998c-1.9839973-0.0449982-4.9819984-0.1119995-6.3149986-2.0250015   c-0.2460022-0.512001-0.1559982-0.8099976-0.0449982-0.9830017c0.2299957-0.3559952,0.6559982-0.3639984,0.7389984-0.3669968   c0.105999,0,0.2080002,0.0390015,0.2900009,0.1060028c0.0209999,0.0179977,2.1699982,1.7779999,4.7980003,1.8359985   c0.3059998,0.0059967,0.6229973,0.0039978,0.9559975,0.0029984c2.7460022-0.0169983,6.4729996-0.0370026,13.0960007,4.6660004   l0.7120018,0.4369965c2.2329979,1.3810043,2.3199997,1.4350052,5.0009995,1.9090042   c0.625,0.1110001,1.4629974,0.2019958,2.4319992,0.3069992c3.6259995,0.3939972,9.1049995,0.9909973,11.5410004,3.6520004   c2.8079987,3.0690002,4.7689972,2.7350006,7.0299988,1.2009964c0.3159981-0.2149963,0.6360016-0.4469986,0.9570007-0.6800003   c1.4959984-1.0839996,3.0429993-2.2089996,4.4499969-1.7859955c0.8310013,0.2470016,1.4700012,0.9810028,1.9510002,2.2429962   c1.5270004,3.9970016,0.7840004,10.5860062,0.7510033,10.8650055c0.0009995,0.0130005-0.156002,4.1089935,4.3009987,9.3779907   c1.0079994,1.1900024,1.9430008,2.2080078,2.769001,3.1060028c3.0289955,3.2929993,4.8579979,5.2819977,4.3429985,9.4459991   c-0.1940002,1.572998-0.5490036,3.0429993-0.8899994,4.465004c-0.7480011,3.1110001-1.3390007,5.5680008,0.1539993,7.2639999   c0.2129974,0.2559967,0.2549973,0.572998,0.1240005,0.8580017c-0.1690063,0.3659973-0.6030045,0.6159973-1.0790024,0.621994   C64.5307922,116.9475937,64.5247955,116.9475937,64.5177994,116.9475937"/>
	<path clip-path="url(#SVGID_2_)" fill="#2A2B84" d="M99.2375031,79.324295c-0.1790009,0-0.352005-0.0389938-0.5140076-0.1169968   c-0.5639954-0.2699966-0.7939987-0.909996-0.8179932-0.9820023c-0.1920013-0.4959946-4.7570038-12.6529999,0.6229935-20.8860016   c2.7960052-4.2769928,7.7720032-6.6619949,14.7950058-7.0919952c-0.0029984-0.0159988-0.0070038-0.0309982-0.0090027-0.0470047   c-0.3300018-1.8029938-0.9430008-5.1569977,1.7470016-5.8689957c0.3610001-0.0960007,0.8610001-0.1860046,1.487999-0.2980042   c3.6669998-0.6569977,12.2549896-2.1949997,22.6529999-11.246994   c11.7460022-10.2260056,20.8699951-15.0829926,24.3760071-15.2700043   c3.1089935-0.1649933,8.6809998-1.0449982,10.2569885-1.5390015c1.1399994-0.3549957,1.5169983-0.0099945,1.6360016,0.3420105   c0.1950073,0.5739899-0.3990021,1.220993-1.0749969,1.4659882c-0.1119995,0.0410004-0.2510071,0.1420135-0.427002,0.2710114   c-0.8869934,0.647995-2.5379944,1.8539886-8.8339996,1.8889923c-0.1069946,0.0039978-0.2379913,0.0010071-0.3899994-0.0029907   c-0.8869934-0.0180054-2.5610046-0.0570068-5.4129944,1.4149933c-3.3580017,1.7319946-9.3059998,5.6819992-15.0149994,11.112999   c-5.3440094,5.0849991-11.931015,11.5820007-12.5810089,12.223999c-0.1640015,0.2870026-0.7380066,1.0090027-2.3619995,1.0090027   c-0.1889954-0.012001-0.4420013-0.0090027-0.7640076-0.0200043c-2.4359894-0.0769958-8.8609924-0.2939987-11.9159851,2.5350037   c-0.026001,1.0709991,0.1139984,2.8919983,0.2329941,3.7539978c0.0240021,0.1699982,0.0610046,0.3270035,0.0910034,0.4660034   c0.086998,0.3869934,0.1790009,0.7869949-0.1070023,1.0839996c-0.2750015,0.2839966-0.7060013,0.25-1.0909958,0.1779938   c-0.4330063-0.0799942-10.5750046-1.8699951-15.7840042,6.3210068c-0.0569992,0.0779953-3.3180008,4.5649948,0.3730011,17.3219986   c0.0009995,0.0059967,0.0039978,0.012001,0.0049973,0.0179977c0.1350021,0.5510025,0.1389999,1.5670013-0.7099991,1.8769989   C99.5485001,79.2962952,99.3905029,79.324295,99.2375031,79.324295"/>
	<polygon clip-path="url(#SVGID_2_)" fill="#2A2B84" points="88.3571014,91.3549957 88.3571014,113.3450012 81.4360962,113.3450012    81.4360962,91.3549957 74.5140991,91.3549957 74.5140991,85.1849976 95.2780991,85.1849976 95.2780991,91.3549957  "/>
	<path clip-path="url(#SVGID_2_)" fill="#2A2B84" d="M112.7614899,113.3455963l-4.9829941-10.4810028h-2.3339996v10.4810028   h-6.9210052V85.1855927h11.1529999c6.2490005,0,9.6110001,4.4290009,9.6110001,9.0570068   c0,3.8359985-2.3730011,6.2489929-4.5879974,7.3560028l6.0910034,11.746994H112.7614899z M109.3604965,91.3945923h-3.9160004   v5.6950073h3.9160004c1.897995,0,3.0059967-1.3840027,3.0059967-2.8470001   C112.3664932,92.778595,111.2584915,91.3945923,109.3604965,91.3945923"/>
	<path clip-path="url(#SVGID_2_)" fill="#2A2B84" d="M142.7827911,110.4187927   c-2.0569916,2.0559998-4.4299927,3.1640015-7.8710022,3.1640015c-3.4400024,0-5.8139954-1.1080017-7.8699875-3.1640015   c-2.9660034-2.9669952-2.8480072-6.9219971-2.8480072-11.1539917c0-4.2320023-0.1179962-8.1870041,2.8480072-11.1529999   c2.0559921-2.0570068,4.429985-3.1640015,7.8699875-3.1640015c3.4410095,0,5.8140106,1.1069946,7.8710022,3.1640015   c2.9660034,2.9659958,2.8480072,6.9209976,2.8480072,11.1529999   C145.6307983,103.4967957,145.7487946,107.4517975,142.7827911,110.4187927 M137.6808014,92.3437958   c-0.5140076-0.6719971-1.503006-1.2259979-2.7690125-1.2259979c-1.2649994,0-2.2539978,0.5540009-2.7679901,1.2259979   c-0.6330109,0.8310013-1.0279999,1.7799988-1.0279999,6.9210052c0,5.1419983,0.394989,6.0519943,1.0279999,6.8819962   c0.5139923,0.6729965,1.5029907,1.2659988,2.7679901,1.2659988c1.2660065,0,2.2550049-0.5930023,2.7690125-1.2659988   c0.6329956-0.8300018,1.0279999-1.7399979,1.0279999-6.8819962   C138.7088013,94.1237946,138.313797,93.1747971,137.6808014,92.3437958"/>
	<path clip-path="url(#SVGID_2_)" fill="#2A2B84" d="M162.1656952,113.5825958c-5.8540039,0-10.6390076-3.9550018-10.6390076-10.125   V85.1855927h6.9210052v18.114006c0,2.6100006,1.423996,4.112999,3.7180023,4.112999   c2.2939911,0,3.7969971-1.5029984,3.7969971-4.112999v-18.114006h6.92099v18.2720032   C172.8836823,109.627594,168.0196838,113.5825958,162.1656952,113.5825958"/>
	<path clip-path="url(#SVGID_2_)" fill="#2A2B84" d="M191.9489899,113.3448944h-12.2600098V85.1848907h11.6670074   c5.8540039,0,8.9779968,3.2830048,8.9779968,8.1480103c0,3.2029953-2.2149963,4.9829941-3.0839996,5.5759964   c1.1459961,0.711998,3.4799957,2.1760025,3.4799957,6.1310043   C200.7299805,110.4188995,196.9719849,113.3448944,191.9489899,113.3448944 M190.9219818,91.3948975h-4.3119965v4.5879974   h4.3119965c1.8980103,0,2.4909973-1.1869965,2.4909973-2.2939987   C193.4129791,92.5808945,192.8199921,91.3948975,190.9219818,91.3948975 M191.2769928,102.1918945h-4.6670074v4.9440002h4.6670074   c1.897995,0,2.5309906-1.3050003,2.5309906-2.4919968C193.8079834,103.457901,193.1749878,102.1918945,191.2769928,102.1918945"/>
	<polygon clip-path="url(#SVGID_2_)" fill="#2A2B84" points="207.1002045,113.3451996 207.1002045,85.1851959    214.0211945,85.1851959 214.0211945,107.1752014 225.8471985,107.1752014 225.8471985,113.3451996  "/>
	<polygon clip-path="url(#SVGID_2_)" fill="#2A2B84" points="228.3003998,113.3451996 228.3003998,85.1851959    247.4433899,85.1851959 247.4433899,91.3551941 235.2223969,91.3551941 235.2223969,96.0611954 245.6633911,96.0611954    245.6633911,102.2312012 235.2223969,102.2312012 235.2223969,107.1752014 247.4433899,107.1752014 247.4433899,113.3451996  "/>
	<polygon clip-path="url(#SVGID_2_)" fill="#2A2B84" points="260.0621948,91.3549957 260.0621948,96.298996 270.5031738,96.298996    270.5031738,102.4689941 260.0621948,102.4689941 260.0621948,113.3450012 253.1401825,113.3450012 253.1401825,85.1849976    272.2831726,85.1849976 272.2831726,91.3549957  "/>
	<path clip-path="url(#SVGID_2_)" fill="#2A2B84" d="M290.9523621,113.3455963l-4.9829712-10.4810028h-2.3330078v10.4810028   h-6.9219971V85.1855927h11.1529846c6.2489929,0,9.6109924,4.4290009,9.6109924,9.0570068   c0,3.8359985-2.3729858,6.2489929-4.5879822,7.3560028l6.0920105,11.746994H290.9523621z M287.5513916,91.3945923h-3.9150085   v5.6950073h3.9150085c1.8979797,0,3.0059814-1.3840027,3.0059814-2.8470001   C290.557373,92.778595,289.4493713,91.3945923,287.5513916,91.3945923"/>
	<polygon clip-path="url(#SVGID_2_)" fill="#2A2B84" points="303.2955933,113.3451996 303.2955933,85.1851959    322.4385681,85.1851959 322.4385681,91.3551941 310.2165833,91.3551941 310.2165833,96.0611954 320.6575928,96.0611954    320.6575928,102.2312012 310.2165833,102.2312012 310.2165833,107.1752014 322.4385681,107.1752014 322.4385681,113.3451996  "/>
	<polygon clip-path="url(#SVGID_2_)" fill="#2A2B84" points="328.9263916,113.3451996 328.9263916,85.1851959    348.0693665,85.1851959 348.0693665,91.3551941 335.8473816,91.3551941 335.8473816,96.0611954 346.2883911,96.0611954    346.2883911,102.2312012 335.8473816,102.2312012 335.8473816,107.1752014 348.0693665,107.1752014 348.0693665,113.3451996  "/>
	<path clip-path="url(#SVGID_2_)" fill="#9A9A9A" d="M84.6392975,148.0639954c-4.2320023,0-7-1.0679932-9.6500015-3.7180023   l2.0559998-2.0559998c2.3339996,2.3330078,4.5089951,3.0850067,7.6729965,3.0850067   c4.112999,0,6.6450043-1.9380035,6.6450043-5.2210083c0-1.4629974-0.4350052-2.7290039-1.3450012-3.519989   c-0.9100037-0.7910004-1.6220016-1.029007-3.6780014-1.3450012l-3.2829971-0.5140076   c-2.215004-0.3560028-3.9550018-1.0679932-5.1809998-2.1360016c-1.4240036-1.2649994-2.1360016-3.0059967-2.1360016-5.2610016   c0-4.784996,3.4410019-7.9489975,9.0179977-7.9489975c3.598999,0,5.9720001,0.9100037,8.3840027,3.0849991l-1.9380035,1.939003   c-1.7399979-1.5820007-3.598999-2.413002-6.5649948-2.413002c-3.7570038,0-5.9330063,2.0960007-5.9330063,5.2200012   c0,1.3840027,0.3960037,2.4920044,1.2660065,3.2429962c0.8699951,0.7519989,2.3339996,1.3050079,3.7969971,1.5429993   l3.0849991,0.4750061c2.6500015,0.3950043,3.9550018,0.9490051,5.1409988,1.977005   c1.5429993,1.3049927,2.3730011,3.243988,2.3730011,5.5769958   C94.3682938,145.0189972,90.4932938,148.0639954,84.6392975,148.0639954"/>
	<path clip-path="url(#SVGID_2_)" fill="#9A9A9A" d="M117.4283905,145.1372986   c-1.897995,1.897995-4.3899994,2.927002-7.197998,2.927002s-5.2999954-1.029007-7.197998-2.927002   c-2.6500015-2.6490021-2.6500015-5.4190063-2.6500015-11.3910065c0-5.970993,0-8.7409973,2.6500015-11.3899994   c1.8980026-1.8989944,4.3899994-2.9269943,7.197998-2.9269943s5.3000031,1.0279999,7.197998,2.9269943   c2.6500015,2.6490021,2.6500015,5.4190063,2.6500015,11.3899994   C120.078392,139.7182922,120.078392,142.4882965,117.4283905,145.1372986 M115.0953979,124.1362915   c-1.2260056-1.2659912-3.0060043-2.0179977-4.8650055-2.0179977s-3.6380005,0.7520065-4.8639984,2.0179977   c-1.7799988,1.8180084-1.9779968,3.7170029-1.9779968,9.6100006c0,5.8939972,0.197998,7.7920074,1.9779968,9.6110077   c1.2259979,1.2649994,3.0049973,2.0169983,4.8639984,2.0169983s3.6389999-0.7519989,4.8650055-2.0169983   c1.7799988-1.8190002,1.9779968-3.7170105,1.9779968-9.6110077   C117.0733948,127.8532944,116.8753967,125.9542999,115.0953979,124.1362915"/>
	<polygon clip-path="url(#SVGID_2_)" fill="#9A9A9A" points="131.748703,122.3559952 131.748703,132.7180023    144.0886993,132.7180023 144.0886993,135.4079895 131.748703,135.4079895 131.748703,147.8269958 128.742691,147.8269958    128.742691,119.6669922 146.2247009,119.6669922 146.2247009,122.3559952  "/>
	<polygon clip-path="url(#SVGID_2_)" fill="#9A9A9A" points="161.5323944,122.3559952 161.5323944,147.8269958    158.5263824,147.8269958 158.5263824,122.3559952 150.3793945,122.3559952 150.3793945,119.6669922 169.6793823,119.6669922    169.6793823,122.3559952  "/>
	<polygon clip-path="url(#SVGID_2_)" fill="#9A9A9A" points="198.3961029,147.8266907 195.5870972,147.8266907    189.338089,125.2826996 183.0890961,147.8266907 180.2810974,147.8266907 173.0830994,119.6666946 176.2870941,119.6666946    181.7850952,142.3686981 187.9940948,119.6666946 190.6830902,119.6666946 196.8920898,142.3686981 202.3900909,119.6666946    205.5930939,119.6666946  "/>
	<path clip-path="url(#SVGID_2_)" fill="#9A9A9A" d="M227.8553925,147.8271027l-2.2539978-6.3690033h-12.3010101   l-2.2539978,6.3690033h-3.2039948l10.3619995-28.1610031h2.5319977l10.3220062,28.1610031H227.8553925z M219.5093994,123.978096   l-5.2990112,14.8709946h10.5200043L219.5093994,123.978096z"/>
	<path clip-path="url(#SVGID_2_)" fill="#9A9A9A" d="M253.3665924,147.8269958l-6.4069977-12.4980011h-6.7630005v12.4980011   h-3.0059967v-28.1600037h10.7969971c4.9049988,0,8.345993,2.965004,8.345993,7.8310013   c0,4.112999-2.4919891,6.8019943-6.1309967,7.5540085l6.6840057,12.7749939H253.3665924z M247.7106018,122.3559952h-7.5140076   v10.3230057h7.5140076c3.2829895,0,5.6169891-1.701004,5.6169891-5.1420059S250.9935913,122.3559952,247.7106018,122.3559952"/>
	<polygon clip-path="url(#SVGID_2_)" fill="#9A9A9A" points="264.7203979,147.8266907 264.7203979,119.6666946    282.2023926,119.6666946 282.2023926,122.3556976 267.7263794,122.3556976 267.7263794,132.2826996 280.0663757,132.2826996    280.0663757,134.972702 267.7263794,134.972702 267.7263794,145.1376953 282.2023926,145.1376953 282.2023926,147.8266907  "/>
</g>
</svg>