<svg xmlns="http://www.w3.org/2000/svg" id="Layer_2" viewBox="0 0 677.49 198.97"><defs><style>.cls-1{fill:#2d60ff;}.cls-2{fill:#1c1c1c;}.cls-3{fill:#00d378;}</style></defs><g id="Layer_1-2"><g><g><path class="cls-2" d="m186.5,126.58V48.89h14.38l1.01,8.58c4.79-6.94,13.11-9.96,20.18-9.96,19.17,0,31.9,14.25,31.9,32.54s-11.48,32.54-31.4,32.54c-6.56,0-16.27-2.02-20.68-8.83v22.83h-15.38Zm52.08-46.54c0-9.71-6.56-17.65-17.65-17.65s-17.65,7.94-17.65,17.65,7.19,17.65,17.65,17.65,17.65-7.94,17.65-17.65Z"></path><path class="cls-2" d="m280.58,32.58v78.47h-15.26V32.58h15.26Z"></path><path class="cls-2" d="m309.83,48.89v32.53c0,9.46,5.17,16.65,15.01,16.65s15.89-7.94,15.89-17.4v-31.78h15.26v62.3h-13.75l-1.01-8.45c-6.43,6.31-12.36,9.33-21.06,9.33-14.88,0-25.73-11.22-25.73-30.52v-32.66h15.39Z"></path><path class="cls-2" d="m410.21,65.41c-4.41-4.16-9.46-5.55-15.38-5.55-7.31,0-11.35,2.27-11.35,6.18s3.66,6.3,11.6,6.81c11.73.76,26.61,3.41,26.61,19.92,0,10.97-8.95,20.43-26.73,20.43-9.84,0-19.67-1.64-28.75-11.1l7.57-10.97c4.41,4.92,14.5,8.58,21.44,8.7,5.8.13,11.22-2.9,11.22-7.44,0-4.29-3.53-6.05-12.36-6.56-11.73-.88-25.73-5.17-25.73-19.29s14.88-19.42,26.23-19.42c9.71,0,17.02,1.89,24.21,8.2l-8.58,10.09Z"></path><path class="cls-2" d="m433.41,126.58V48.76h6.05v14.75c4.92-9.46,14.88-15.64,26.99-15.64,16.9.63,30.27,11.98,30.27,32.03s-14.12,32.28-31.65,32.28c-10.59,0-20.43-5.17-25.73-15.51v29.9h-5.93Zm57.13-46.67c0-17.53-11.35-26.1-25.47-26.1s-25.22,10.97-25.22,26.23,10.97,26.23,25.22,26.23,25.47-8.83,25.47-26.36Z"></path><path class="cls-2" d="m508.94,80.03c0-19.8,14.12-32.41,31.65-32.41s31.65,12.61,31.65,32.41-14.12,31.9-31.65,31.9-31.65-12.11-31.65-31.9Zm57.25,0c0-16.14-11.48-26.61-25.6-26.61s-25.6,10.47-25.6,26.61,11.48,25.85,25.6,25.85,25.6-9.71,25.6-25.85Z"></path><path class="cls-2" d="m592.3,48.76l.25,11.1c3.91-8.45,12.74-11.73,20.68-11.73,4.67-.13,9.21,1.14,13.37,3.66l-2.77,5.04c-3.28-2.02-6.94-2.9-10.59-2.9-11.6.13-20.56,9.46-20.56,20.81v36.32h-6.18v-62.3h5.8Z"></path><path class="cls-2" d="m654.09,29.97v18.79h21.19v5.17h-21.19v37.96c0,8.45,1.77,14.38,11.48,14.38,3.03,0,6.43-1.01,9.58-2.52l2.14,5.04c-3.91,1.89-7.82,3.15-11.73,3.15-13.24,0-17.53-7.82-17.53-20.05v-37.96h-13.24v-5.17h13.24v-18.16l6.05-.63Z"></path></g><g><polygon class="cls-3" points="163.93 82.13 131.47 82.13 131.47 32.47 81.8 32.47 81.8 0 163.93 0 163.93 82.13"></polygon><polygon class="cls-1" points="131.29 81.99 81.88 81.99 81.88 32.58 49.41 32.58 49.41 81.99 0 81.99 0 114.46 49.41 114.46 49.41 163.87 81.88 163.87 81.88 114.46 131.29 114.46 131.29 81.99"></polygon></g><g><path class="cls-2" d="m459.19,185.54c-1.87-1.18-3.07-2.64-3.6-4.38h-.1c.07,1.4.1,3.3.1,5.7h-2.75v-35h2.85v9.2c0,2.5-.07,4.73-.2,6.7h.1c.63-1.7,1.88-3.13,3.75-4.3,1.87-1.17,4.02-1.75,6.45-1.75s4.43.54,6.3,1.62c1.87,1.08,3.33,2.59,4.4,4.53,1.07,1.93,1.6,4.13,1.6,6.6s-.53,4.73-1.6,6.67c-1.07,1.95-2.53,3.47-4.4,4.55-1.87,1.08-3.98,1.62-6.35,1.62-2.5,0-4.68-.59-6.55-1.78Zm11.3-2.15c1.5-.85,2.67-2.04,3.5-3.57.83-1.53,1.25-3.3,1.25-5.3s-.42-3.77-1.25-5.3c-.83-1.53-1.99-2.72-3.48-3.58-1.48-.85-3.18-1.27-5.08-1.27s-3.58.42-5.05,1.27c-1.47.85-2.62,2.04-3.45,3.58-.83,1.53-1.25,3.3-1.25,5.3s.42,3.77,1.25,5.3c.83,1.53,1.98,2.72,3.45,3.57,1.47.85,3.13,1.28,5,1.28s3.6-.42,5.1-1.28Z"></path><path class="cls-2" d="m504.74,162.17l-12.7,30.55c-.9,2.17-1.92,3.75-3.05,4.75-1.13,1-2.48,1.5-4.05,1.5s-2.97-.42-4.2-1.25l1.15-2.35c.83.63,1.8.95,2.9.95,1.03,0,1.92-.38,2.67-1.12s1.42-1.88,2.02-3.38l1.9-4.55-10.4-25.1h3.1l4.8,11.85c1.6,3.87,2.93,7.2,4,10h.1l4-10,4.65-11.85h3.1Z"></path><path class="cls-2" d="m521.29,151.87l8.1,20.2.95,2.35c.4,1.07.88,2.31,1.45,3.72.57,1.42,1.23,3.18,2,5.28h.1c1.03-2.87,2.5-6.65,4.4-11.35l8.1-20.2h3.15l-14.05,35h-3.3l-14.1-35h3.2Z"></path><path class="cls-2" d="m556.54,151.87h2.95v35h-2.95v-35Z"></path><path class="cls-2" d="m567.39,183.17l1.5-2.35c3.7,2.57,7.52,3.85,11.45,3.85,2.9,0,5.23-.62,7-1.88,1.77-1.25,2.65-2.97,2.65-5.17,0-1.37-.28-2.5-.85-3.4-.57-.9-1.56-1.67-2.98-2.33-1.42-.65-3.42-1.24-6.02-1.77-2.87-.57-5.14-1.26-6.83-2.08-1.68-.82-2.92-1.83-3.7-3.03-.78-1.2-1.18-2.67-1.18-4.4,0-1.87.52-3.52,1.58-4.95,1.05-1.43,2.49-2.53,4.32-3.3,1.83-.77,3.9-1.15,6.2-1.15,4.03,0,7.63,1.07,10.8,3.2l-1.6,2.25c-2.67-1.77-5.73-2.65-9.2-2.65-2.67,0-4.86.59-6.58,1.78-1.72,1.18-2.57,2.78-2.57,4.78,0,1.23.31,2.26.92,3.07.62.82,1.61,1.53,2.98,2.12,1.37.6,3.27,1.15,5.7,1.65,3.03.63,5.42,1.39,7.15,2.28,1.73.88,2.98,1.95,3.73,3.2s1.12,2.81,1.12,4.68c0,3.07-1.17,5.48-3.5,7.25-2.33,1.77-5.4,2.65-9.2,2.65-4.73,0-9.03-1.43-12.9-4.3Z"></path><path class="cls-2" d="m636.09,151.87v35h-2.95v-27.15c0-.87.03-1.83.1-2.9l-.1-.05-2.3,3.6-11.85,18.3h-1.35l-11.85-18.25c-.43-.7-1.2-1.83-2.3-3.4l-.1.05c.07,1.07.1,2.03.1,2.9v26.9h-2.95v-35h3.15l14.6,22.65,14.6-22.65h3.2Z"></path><path class="cls-2" d="m674.24,186.87l-3.8-8.5h-20.7l-3.8,8.5h-3.25l15.7-35h3.4l15.7,35h-3.25Zm-18.35-22.55l-4.95,11.3h18.25l-5-11.4c-.1-.23-.22-.5-.35-.8-.13-.3-.27-.62-.4-.95-1.53-3.4-2.63-5.95-3.3-7.65h-.1c-.87,2.13-2.25,5.3-4.15,9.5Z"></path></g></g></g></svg>