<?xml version="1.0" encoding="UTF-8"?>
<!-- Generator: Adobe Illustrator 22.0.1, SVG Export Plug-In . SVG Version: 6.00 Build 0)  -->
<svg version="1.1" id="Laag_1" xmlns="http://www.w3.org/2000/svg" xmlns:xlink="http://www.w3.org/1999/xlink" x="0px" y="0px" viewBox="0 0 491.8 57.1" style="enable-background:new 0 0 491.8 57.1;" xml:space="preserve">
<style type="text/css">
	.st0{fill:#115567; }
	.st1{fill:#0099BB;}
	.st2{fill:none;stroke:#115567;stroke-miterlimit:10;}
	.st3{fill:none;stroke:#0099BB;stroke-miterlimit:10;}
	.st4{fill:none;stroke:#047890;stroke-miterlimit:10;}
	.st5{fill:#047790;}
</style>
<g>
	<path class="st0" d="M89.9,11.9c9.3,0,16.8,7.1,16.8,16.5c0,9.6-7.5,16.8-16.8,16.8c-9.3,0-16.8-7.2-16.8-16.8   C73.1,19,80.6,11.9,89.9,11.9z M89.9,41.4c6.8,0,12.3-5.6,12.3-13c0-7.2-5.6-12.6-12.3-12.6c-6.8,0-12.4,5.4-12.4,12.6   C77.5,35.8,83.1,41.4,89.9,41.4z"/>
	<path class="st0" d="M114.3,14.2c0-1,0.5-1.6,1.5-1.6h1c1,0,1.5,0.6,1.5,1.5v2.3c0,1.3-0.2,2.2-0.2,2.2h0.1c0,0,2.7-6.6,11.1-6.6   c8.5,0,13.9,6.8,13.9,16.7c0,10.1-6,16.6-14.3,16.6c-7.7,0-10.5-6.5-10.5-6.5h-0.1c0,0,0.3,1.1,0.3,2.8v14c0,1-0.6,1.6-1.6,1.6   h-1.2c-1,0-1.5-0.6-1.5-1.6V14.2z M128.5,41.4c5.7,0,10.3-4.7,10.3-12.8c0-7.8-4.2-12.8-10.1-12.8c-5.3,0-10.3,3.8-10.3,12.8   C118.4,35,122,41.4,128.5,41.4z"/>
	<path class="st0" d="M151,1.6c0-1,0.5-1.6,1.5-1.6h1.2c1,0,1.6,0.6,1.6,1.6v34.6c0,4,1.9,4.4,3.3,4.6c0.8,0.1,1.3,0.4,1.3,1.4v0.9   c0,0.9-0.4,1.6-1.6,1.6c-2.6,0-7.3-0.8-7.3-7.8V1.6z"/>
	<path class="st0" d="M180,11.9c8.5,0,13.3,6.1,13.3,15.2c0,0.9-0.7,1.6-1.6,1.6h-22.9c0.2,8.1,5.8,12.7,12.3,12.7   c4,0,6.9-1.8,8.3-2.9c0.9-0.6,1.6-0.4,2.1,0.4l0.5,0.8c0.4,0.8,0.3,1.5-0.4,2.1c-1.7,1.3-5.5,3.5-10.6,3.5   c-9.5,0-16.6-6.8-16.6-16.6C164.3,18.2,171.4,11.9,180,11.9z M188.9,25.4c-0.3-6.7-4.3-10-9-10c-5.3,0-9.9,3.5-10.9,10H188.9z"/>
	<path class="st0" d="M200.7,3.9V1.6c0-1,0.5-1.6,1.5-1.6h1.6c1,0,1.5,0.6,1.5,1.6v2.3c0,1-0.5,1.5-1.5,1.5h-1.6   C201.2,5.4,200.7,4.9,200.7,3.9z M200.8,14.2c0-1,0.6-1.6,1.6-1.6h1.2c1,0,1.5,0.6,1.5,1.6v28.7c0,1-0.5,1.6-1.5,1.6h-1.2   c-1,0-1.6-0.6-1.6-1.6V14.2z"/>
	<path class="st0" d="M227.2,11.9c7.7,0,10.4,6.4,10.4,6.4h0.1c0,0-0.2-1.1-0.2-2.4V1.6c0-1,0.6-1.6,1.6-1.6h1.2   c1,0,1.5,0.6,1.5,1.6v41.3c0,1-0.5,1.6-1.5,1.6h-1.1c-1,0-1.6-0.5-1.6-1.5v-2.4c0-1.1,0.3-2,0.3-2h-0.1c0,0-2.7,6.6-11.1,6.6   c-8.5,0-13.9-6.8-13.9-16.7C212.9,18.5,218.8,11.9,227.2,11.9z M227.3,41.4c5.3,0,10.3-3.8,10.3-12.8c0-6.5-3.3-12.7-10.1-12.7   c-5.6,0-10.2,4.7-10.2,12.7C217.3,36.4,221.4,41.4,227.3,41.4z"/>
	<path class="st0" d="M265.2,11.9c8.5,0,13.3,6.1,13.3,15.2c0,0.9-0.7,1.6-1.6,1.6H254c0.2,8.1,5.8,12.7,12.3,12.7   c4,0,6.9-1.8,8.3-2.9c0.9-0.6,1.6-0.4,2.1,0.4l0.5,0.8c0.4,0.8,0.3,1.5-0.4,2.1c-1.7,1.3-5.5,3.5-10.6,3.5   c-9.5,0-16.6-6.8-16.6-16.6C249.5,18.2,256.6,11.9,265.2,11.9z M274.1,25.4c-0.3-6.7-4.3-10-9-10c-5.3,0-9.9,3.5-10.9,10H274.1z"/>
	<path class="st0" d="M286,14.2c0-1,0.6-1.6,1.6-1.6h1.1c0.9,0,1.5,0.6,1.5,1.6v4.3c0,1.4-0.3,2.5-0.3,2.5h0.1   c1.5-4.6,5.2-8.6,10.2-8.6c1.1,0,1.6,0.5,1.6,1.5v1.1c0,1-0.7,1.6-1.8,1.6c-6.7,0-9.9,7.7-9.9,14.3v11.9c0,1-0.5,1.6-1.5,1.6h-1.2   c-1,0-1.6-0.6-1.6-1.6V14.2z"/>
	<path class="st0" d="M305.3,39.4l0.5-0.6c0.6-0.8,1.3-0.8,2.2-0.3c1.4,1.1,4.3,2.9,8.4,2.9c3.5,0,6.5-1.8,6.5-5.1   c0-7.1-17-5-17-15.5c0-5.9,5-8.9,10.8-8.9c4.6,0,7.4,1.6,8.7,2.6c0.8,0.5,0.9,1.3,0.4,2.1l-0.4,0.7c-0.5,0.9-1.3,0.9-2.2,0.4   c-1.2-0.8-3.5-2-6.8-2c-3.4,0-6.3,1.5-6.3,4.9c0,7.3,17,5,17,15.6c0,5.3-4.4,9-10.8,9c-5.6,0-9.2-2.3-10.8-3.7   C304.7,41,304.7,40.2,305.3,39.4z"/>
	<path class="st1" d="M350.5,11.9c7.7,0,10.4,6.4,10.4,6.4h0.1c0,0-0.2-1.1-0.2-2.4V1.6c0-1,0.6-1.6,1.6-1.6h1.2   c1,0,1.5,0.6,1.5,1.6v41.3c0,1-0.5,1.6-1.5,1.6h-1.1c-1,0-1.6-0.5-1.6-1.5v-2.4c0-1.1,0.3-2,0.3-2h-0.1c0,0-2.7,6.6-11.1,6.6   c-8.5,0-13.9-6.8-13.9-16.7C336.2,18.5,342.2,11.9,350.5,11.9z M350.7,41.4c5.3,0,10.3-3.8,10.3-12.8c0-6.5-3.3-12.7-10.1-12.7   c-5.6,0-10.2,4.7-10.2,12.7C340.7,36.4,344.8,41.4,350.7,41.4z"/>
	<path class="st1" d="M374.9,3.9V1.6c0-1,0.5-1.6,1.5-1.6h1.6c1,0,1.5,0.6,1.5,1.6v2.3c0,1-0.5,1.5-1.5,1.5h-1.6   C375.4,5.4,374.9,4.9,374.9,3.9z M375,14.2c0-1,0.6-1.6,1.6-1.6h1.2c1,0,1.5,0.6,1.5,1.6v28.7c0,1-0.5,1.6-1.5,1.6h-1.2   c-1,0-1.6-0.6-1.6-1.6V14.2z"/>
	<path class="st1" d="M389.1,14.2c0-1,0.6-1.6,1.6-1.6h1.1c0.9,0,1.5,0.6,1.5,1.6v4.3c0,1.4-0.3,2.5-0.3,2.5h0.1   c1.5-4.6,5.2-8.6,10.2-8.6c1.1,0,1.6,0.5,1.6,1.5v1.1c0,1-0.7,1.6-1.8,1.6c-6.7,0-9.9,7.7-9.9,14.3v11.9c0,1-0.5,1.6-1.5,1.6h-1.2   c-1,0-1.6-0.6-1.6-1.6V14.2z"/>
	<path class="st1" d="M423.1,11.9c8.5,0,13.3,6.1,13.3,15.2c0,0.9-0.7,1.6-1.6,1.6h-22.9c0.2,8.1,5.8,12.7,12.3,12.7   c4,0,6.9-1.8,8.3-2.9c0.9-0.6,1.6-0.4,2.1,0.4l0.5,0.8c0.4,0.8,0.3,1.5-0.4,2.1c-1.7,1.3-5.5,3.5-10.6,3.5   c-9.5,0-16.6-6.8-16.6-16.6C407.4,18.2,414.5,11.9,423.1,11.9z M432,25.4c-0.3-6.7-4.3-10-9-10c-5.3,0-9.9,3.5-10.9,10H432z"/>
	<path class="st1" d="M458.4,11.9c5.4,0,9,2.3,10.6,3.6c0.8,0.6,0.8,1.3,0.2,2.2l-0.4,0.7c-0.6,0.9-1.3,0.9-2.2,0.3   c-1.4-1.1-4.2-2.9-8-2.9c-7,0-12.4,5.2-12.4,12.8c0,7.5,5.4,12.8,12.5,12.8c4.4,0,7.5-2.1,9-3.4c0.8-0.6,1.5-0.5,2.1,0.4l0.4,0.6   c0.5,0.8,0.3,1.5-0.4,2.2c-1.6,1.3-5.4,4-11.3,4c-9.5,0-16.7-6.8-16.7-16.6C441.7,18.8,449,11.9,458.4,11.9z"/>
	<path class="st1" d="M478.8,16.5h-2.7c-1,0-1.5-0.5-1.5-1.5v-0.5c0-1,0.5-1.6,1.5-1.6h2.7V5.4c0-1,0.6-1.6,1.6-1.6h1.1   c1,0,1.5,0.6,1.5,1.6v7.5h6.5c1,0,1.6,0.6,1.6,1.6V15c0,1-0.6,1.5-1.6,1.5h-6.5v15.9c0,7.3,4.5,8.2,7,8.3c1.3,0.1,1.7,0.5,1.7,1.6   v0.8c0,1-0.5,1.5-1.8,1.5c-7,0-11.2-4.2-11.2-11.7V16.5z"/>
</g>
<g>
	<ellipse transform="matrix(0.4717 -0.8818 0.8818 0.4717 -9.3103 43.099)" class="st2" cx="31.3" cy="29.3" rx="23.8" ry="24.2"/>
	<path class="st3" d="M42.5,8.3c11.8,6.3,16.3,20.8,10.1,32.4c-1.7,3.3-4.2,5.9-7,8"/>
	<path class="st4" d="M7.3,27.3c0.2-3.2,1.1-6.4,2.7-9.4C15.4,7.8,27.1,3.3,37.8,6.4"/>
	<ellipse transform="matrix(0.4717 -0.8818 0.8818 0.4717 14.5019 41.942)" class="st5" cx="42.3" cy="8.9" rx="7.4" ry="7.5"/>
	<ellipse transform="matrix(0.4717 -0.8818 0.8818 0.4717 -19.2827 65.181)" class="st1" cx="44.8" cy="48.7" rx="7.4" ry="7.5"/>
	<ellipse transform="matrix(0.4717 -0.8818 0.8818 0.4717 -21.3891 21.8304)" class="st0" cx="7.5" cy="28.8" rx="7.4" ry="7.5"/>
</g>
</svg>