<svg xmlns="http://www.w3.org/2000/svg" viewBox="0 0 276.96 73.49"><defs><style>.cls-1{fill:#585856;}.cls-2{fill:#db864e;}.cls-3{fill:#523178;}.cls-4{fill:#6399ae;}.cls-5{fill:#789d4a;}</style></defs><title>Middel 1</title><g id="Laag_2" data-name="Laag 2"><g id="Laag_1-2" data-name="Laag 1"><path class="cls-1" d="M114.59,25.69c0,6-4,10.16-9.77,10.16S95,31.7,95,25.51a10.34,10.34,0,0,1,3-7.79,9.71,9.71,0,0,1,6.72-2.52c6,0,9.8,4.12,9.8,10.48m-14.92-.18c0,4.12,1.92,6.57,5.15,6.57s5.12-2.46,5.12-6.48S108,19,104.79,19s-5.12,2.46-5.12,6.54"/><path class="cls-1" d="M125.51,35.4h-4.44V15.65h7.76c2.69,0,4.11.38,5.39,1.51a6.73,6.73,0,0,1,2.13,5.15,6.43,6.43,0,0,1-1.69,4.56,6.3,6.3,0,0,1-5,1.81h-4.17ZM129,24.89a2.56,2.56,0,0,0,2.81-2.72A2.55,2.55,0,0,0,129,19.44h-3.49v5.45Z"/><polygon class="cls-1" points="151.17 35.4 146.73 35.4 146.73 19.44 140.75 19.44 140.75 15.65 157.15 15.65 157.15 19.44 151.17 19.44 151.17 35.4"/><rect class="cls-1" x="162.5" y="15.65" width="4.44" height="19.75"/><polygon class="cls-1" points="182.72 35.4 178.28 35.4 178.28 19.44 172.29 19.44 172.29 15.65 188.7 15.65 188.7 19.44 182.72 19.44 182.72 35.4"/><path class="cls-1" d="M198.4,35.4H194V15.65h8.62c2.55,0,4,.33,5.15,1.18A5,5,0,0,1,209.71,21a4.62,4.62,0,0,1-3.29,4.77c2,.62,2.64,1.66,2.78,4.26l.15,2.81a4.16,4.16,0,0,0,.8,2.58H205.8c-.53-.41-.68-.71-.74-1.72l-.18-2.7c-.18-2.43-1.24-3.49-3.52-3.49h-3ZM202.75,24c1.63,0,2.52-.83,2.52-2.28s-.89-2.28-2.52-2.28H198.4V24Z"/><path class="cls-1" d="M220.93,31.43l-1.24,4h-4.83l6.9-19.75h5.54l6.28,19.75h-5l-1.07-4Zm3.49-11.37L222,27.79h4.47Z"/><path class="cls-1" d="M238.62,15.65h6.69c4,0,6.1.71,7.88,2.72a10.55,10.55,0,0,1,2.43,7A11,11,0,0,1,253,32.79c-1.72,1.83-3.91,2.6-7.58,2.6h-6.84Zm7.43,16c2,0,3.23-.56,4.06-1.92a8,8,0,0,0,1-4.18,7.88,7.88,0,0,0-.95-4.08,3.92,3.92,0,0,0-3.79-2h-3.29V31.61Z"/><polygon class="cls-1" points="276.78 19.44 266.51 19.44 266.51 23.29 275.48 23.29 275.48 26.78 266.51 26.78 266.51 31.61 276.96 31.61 276.96 35.4 262.06 35.4 262.06 15.65 276.78 15.65 276.78 19.44"/><path class="cls-1" d="M98.1,58H96.31V45.44h5.12a4.72,4.72,0,0,1,3.28.85,3.26,3.26,0,0,1,1.15,2.65A3.15,3.15,0,0,1,103.92,52c1,.45,1.39,1.17,1.49,2.65l.08,1.05A4.08,4.08,0,0,0,106.1,58h-2.18a9.29,9.29,0,0,1-.28-2.28l-.09-.92a1.91,1.91,0,0,0-2-2H98.1Zm3-6.65a3.45,3.45,0,0,0,2.11-.53,2.18,2.18,0,0,0,.83-1.75c0-1.3-.89-2.07-2.35-2.07H98.1v4.35Z"/><polygon class="cls-1" points="119.23 47 112.2 47 112.2 50.79 118.63 50.79 118.63 52.26 112.2 52.26 112.2 56.44 119.47 56.44 119.47 58 110.42 58 110.42 45.44 119.23 45.44 119.23 47"/><polygon class="cls-1" points="128.37 58 126.58 58 126.58 47 122.66 47 122.66 45.44 132.28 45.44 132.28 47 128.37 47 128.37 58"/><path class="cls-1" d="M136.54,54.23,135.26,58h-1.9L138,45.44h1.92L144.52,58h-2l-1.3-3.77Zm2.37-6.85-1.85,5.35h3.69Z"/><rect class="cls-1" x="148.09" y="45.44" width="1.79" height="12.56"/><polygon class="cls-1" points="156.5 56.44 163.04 56.44 163.04 58 154.72 58 154.72 45.44 156.5 45.44 156.5 56.44"/><path class="cls-1" d="M177.11,51.26V58h-1.34l-.11-2.09a4.25,4.25,0,0,1-1.21,1.47,4.78,4.78,0,0,1-2.9.9c-3.39,0-5.73-2.67-5.73-6.55s2.41-6.57,6-6.57a4.82,4.82,0,0,1,5.14,4.12h-1.79a3.19,3.19,0,0,0-3.39-2.56c-2.47,0-4,1.88-4,4.84s1.64,5.14,4.12,5.14a3.31,3.31,0,0,0,3-1.79,4.92,4.92,0,0,0,.49-2.18h-3.71V51.26Z"/><path class="cls-1" d="M183.51,58h-1.79V45.44h5.12a4.72,4.72,0,0,1,3.28.85,3.26,3.26,0,0,1,1.15,2.65A3.15,3.15,0,0,1,189.33,52c1,.45,1.39,1.17,1.49,2.65l.07,1.05a4.08,4.08,0,0,0,.62,2.28h-2.18a9.27,9.27,0,0,1-.28-2.28L189,54.8a1.9,1.9,0,0,0-2-2h-3.43Zm3-6.65a3.44,3.44,0,0,0,2.11-.53,2.18,2.18,0,0,0,.83-1.75c0-1.3-.89-2.07-2.36-2.07h-3.58v4.35Z"/><path class="cls-1" d="M207.26,51.8c0,3.75-2.56,6.48-6.06,6.48s-6.06-2.73-6.06-6.57,2.52-6.55,6-6.55,6.08,2.71,6.08,6.65M197,51.71c0,3,1.71,5,4.24,5s4.24-2,4.24-4.93c0-3.05-1.69-5.07-4.24-5.07s-4.24,2-4.24,5"/><polygon class="cls-1" points="220.43 47 213.4 47 213.4 50.79 219.82 50.79 219.82 52.26 213.4 52.26 213.4 56.44 220.67 56.44 220.67 58 211.62 58 211.62 45.44 220.43 45.44 220.43 47"/><path class="cls-1" d="M226.61,58h-1.79V45.44h4.41a5.09,5.09,0,0,1,3.46.9,3.58,3.58,0,0,1,1.24,2.86,3.45,3.45,0,0,1-1.17,2.73c-.81.72-1.69,1-3.41,1h-2.75Zm2.88-6.57a2.77,2.77,0,0,0,2-.58,2.25,2.25,0,0,0,0-3.26,2.77,2.77,0,0,0-2-.58h-2.88v4.43Z"/><rect class="cls-1" x="71.1" width="2.04" height="73.49"/><path class="cls-2" d="M26.56,51.49a14.76,14.76,0,0,0,14.9-14.75h12a26.71,26.71,0,0,1-27,26.71Z"/><path class="cls-3" d="M12,36.46a14.74,14.74,0,0,0,14.6,15l-.11,12A26.7,26.7,0,0,1,0,36.23Z"/><path class="cls-4" d="M27.13,22A14.74,14.74,0,0,0,12,36.46L0,36.23A26.7,26.7,0,0,1,27.48,10.06Z"/><path class="cls-5" d="M41.46,36.74A14.76,14.76,0,0,0,26.56,22l-.11-12a26.71,26.71,0,0,1,27,26.71Z"/></g></g></svg>